<svg xmlns="http://www.w3.org/2000/svg" width="500" height="500" style="width:100%;height:100%;transform:translate3d(0,0,0)" viewBox="0 0 500 500"><defs><clipPath id="a"><path d="M0 0h500v500H0z"/></clipPath><clipPath id="c"><path d="M0 0h500v500H0z"/></clipPath><clipPath id="b"><path d="M0 0h500v500H0z"/></clipPath></defs><g clip-path="url(#a)"><g clip-path="url(#b)" opacity="0" style="display:block"><g fill="#F8C8C0" opacity="1" style="display:block"><path d="m247.368 170.269 30.831 10.14m0 0L263.7 170.313c-12.696-8.841-15.602-26.412-6.428-38.869a10.915 10.915 0 0 1 14.802-2.637l39.807 26.279a93.467 93.467 0 0 1 38.801 53.856l27.21 8.949-30.852 93.803-27.21-8.95s-25.848 12.253-55.407 2.531l-55.459-18.241m52.318-112.189-50.524-16.617-37.308-12.271c-7.599-2.499-15.787 1.635-18.286 9.234-2.803 8.523 1.833 17.704 10.356 20.507l34.469 11.337 51.692 17.001m-9.602 29.192-50.906-16.744-39.433-12.97c-7.599-2.499-15.787 1.635-18.286 9.234-2.803 8.523 1.833 17.704 10.356 20.507l44.63 14.679 44.038 14.485m0 0-43.51-14.311-21.281-6.999c-8.061-2.651-16.745 1.734-19.396 9.795s1.734 16.745 9.795 19.396l23.488 7.725 41.303 13.585m28.804-87.574-52.517-17.273-50.019-16.451c-8.061-2.651-16.745 1.734-19.396 9.795s1.734 16.745 9.795 19.396a8726420.63 8726420.63 0 0 0 102.535 33.725" opacity="1"/><path d="M237.75 167.125 203.5 285.25l40.5 13 52.25-112-58.5-19.125z" opacity="1"/></g><g fill="#F8C8C0" opacity=".5" style="mix-blend-mode:multiply;display:block"><path d="m247.368 170.269 30.831 10.14m0 0L263.7 170.313c-12.696-8.841-15.602-26.412-6.428-38.869a10.915 10.915 0 0 1 14.802-2.637l39.807 26.279a93.467 93.467 0 0 1 38.801 53.856l27.21 8.949-30.852 93.803-27.21-8.95s-25.848 12.253-55.407 2.531l-55.459-18.241m52.318-112.189-50.524-16.617-37.308-12.271c-7.599-2.499-15.787 1.635-18.286 9.234-2.803 8.523 1.833 17.704 10.356 20.507l34.469 11.337 51.692 17.001m-9.602 29.192-50.906-16.744-39.433-12.97c-7.599-2.499-15.787 1.635-18.286 9.234-2.803 8.523 1.833 17.704 10.356 20.507l44.63 14.679 44.038 14.485m0 0-43.51-14.311-21.281-6.999c-8.061-2.651-16.745 1.734-19.396 9.795s1.734 16.745 9.795 19.396l23.488 7.725 41.303 13.585m28.804-87.574-52.517-17.273-50.019-16.451c-8.061-2.651-16.745 1.734-19.396 9.795s1.734 16.745 9.795 19.396a8726420.63 8726420.63 0 0 0 102.535 33.725" opacity="1"/><path d="M237.75 167.125 203.5 285.25l40.5 13 52.25-112-58.5-19.125z" opacity="1"/></g><path fill="none" stroke="#121330" stroke-linecap="round" stroke-linejoin="round" stroke-width="7" d="m57.04-31.114 30.831 10.14m0 0L73.372-31.07c-12.696-8.841-15.602-26.412-6.428-38.869 0 0 0 0 0 0a10.915 10.915 0 0 1 14.802-2.637l39.807 26.279a93.467 93.467 0 0 1 38.801 53.856l27.21 8.949-30.852 93.803-27.21-8.95s-25.848 12.253-55.407 2.531L18.636 85.651M70.954-26.538 20.43-43.155l-37.308-12.271c-7.599-2.499-15.787 1.635-18.286 9.234 0 0 0 0 0 0-2.803 8.523 1.833 17.704 10.356 20.507L9.661-14.348 61.353 2.653m-9.602 29.192L.845 15.101l-39.433-12.97c-7.599-2.499-15.787 1.635-18.286 9.234 0 0 0 0 0 0-2.803 8.523 1.833 17.704 10.356 20.507l44.63 14.679L42.15 61.036m0 0L-1.36 46.725l-21.281-6.999c-8.061-2.651-16.745 1.734-19.396 9.795 0 0 0 0 0 0-2.651 8.061 1.734 16.745 9.795 19.396l23.488 7.725 41.303 13.585M61.353 2.653 8.836-14.62l-50.019-16.451c-8.061-2.651-16.745 1.734-19.396 9.795 0 0 0 0 0 0-2.651 8.061 1.734 16.745 9.795 19.396A8726420.63 8726420.63 0 0 0 51.751 31.845" opacity="1" style="display:block" transform="translate(190.328 201.383)"/><g fill="#F8C8C0" opacity="1" style="display:block"><path d="m284.13 263.97-12.39-22.16m-110.4 55.12s13.56 23.66 29.04 50.65c15.47 27 44.89 40.02 44.89 40.02l16.48 23.43 80.76-56.82-16.48-23.43c8.46-21.25 15.84-40.98 10.07-63.12l-12.02-46.15c-1.46-5.63-7.07-9.12-12.76-7.94-15.16 3.12-24.75 18.13-21.22 33.19l4.03 17.21m-12.86-22.2s-8.12-20.7-11.44-31.29c-4.41-14.04-9.78-39.74-9.78-39.74-1.62-7.83-9.28-12.87-17.12-11.25-8.78 1.81-14.44 10.4-12.62 19.19 0 0 6.09 30.21 10.65 43.51 4.91 14.36 17.65 41.61 17.65 41.61m-26.66 15.28s-14.54-31.42-19.92-46.74c-5.23-14.91-11.96-40.85-11.96-40.85-1.55-7.85-9.17-12.95-17.02-11.4-8.8 1.75-14.52 10.29-12.78 19.09 0 0 9.1 33.43 14.4 48.34 5.69 15.98 20.62 46.84 20.62 46.84m0 0s-14.23-28.27-19.91-45.02c-2.19-6.46-7.62-23.09-7.62-23.09-3.19-7.87-12.14-11.66-20.01-8.48-7.86 3.19-11.66 12.14-8.47 20.01 0 0 4.93 19.76 8.17 29.09 5.24 15.13 21.18 42.77 21.18 42.77m79.98-45.84s-12.72-27.62-17.77-41.94c-6.57-18.63-13.94-54.99-13.94-54.99-1.35-8.38-9.25-14.07-17.62-12.71-8.38 1.36-14.07 9.25-12.71 17.63 0 0 4.93 33.21 15.99 59.76 6.11 14.67 19.39 47.53 19.39 47.53M265.5 231 161 294.5l32 58 100.5-62-28-59.5z"/><path d="M265.5 231 161 294.5l32 58 100.5-62-28-59.5z" opacity="1"/></g><path fill="none" stroke="#121330" stroke-linecap="round" stroke-linejoin="round" stroke-width="7" d="M0 0" opacity="1" style="display:block" transform="translate(179.503 113.168)"/><path fill="none" stroke="#121330" stroke-linecap="round" stroke-linejoin="round" stroke-width="7" d="M-11.761-31.194.629-9.035m0 0-4.027-17.204c-3.526-15.063 6.065-30.07 21.216-33.196 0 0 0 0 0 0a10.915 10.915 0 0 1 12.768 7.939l12.02 46.159c5.764 22.133-1.615 41.868-10.07 63.119l16.481 23.427-80.764 56.816-16.48-23.428s-29.42-13.018-44.894-40.014l-29.032-50.651m109.926-55.168s-8.12-20.691-11.443-31.286c-4.404-14.041-9.781-39.736-9.781-39.736-1.617-7.835-9.279-12.874-17.114-11.257 0 0 0 0 0 0-8.786 1.814-14.439 10.408-12.625 19.194 0 0 6.097 30.213 10.651 43.512 4.916 14.355 17.651 41.604 17.651 41.604m-26.66 15.281s-14.536-31.42-19.916-46.739c-5.237-14.91-11.959-40.852-11.959-40.852-1.555-7.847-9.176-12.949-17.023-11.394 0 0 0 0 0 0-8.801 1.744-14.522 10.291-12.778 19.092 0 0 9.095 33.426 14.399 48.336 5.684 15.978 20.616 46.839 20.616 46.839m0 0S-102.44-6.915-108.12-23.659c-2.191-6.46-7.619-23.096-7.619-23.096-3.185-7.865-12.143-11.66-20.008-8.475 0 0 0 0 0 0-7.865 3.185-11.66 12.143-8.475 20.008 0 0 4.938 19.765 8.17 29.087 5.248 15.134 21.182 42.774 21.182 42.774m79.982-45.844s-12.72-27.62-17.768-41.939c-6.567-18.628-13.937-54.991-13.937-54.991-1.359-8.376-9.251-14.065-17.627-12.706 0 0 0 0 0 0-8.376 1.359-14.065 9.25-12.706 17.626 0 0 4.929 33.213 15.989 59.768 6.109 14.668 19.389 47.523 19.389 47.523" opacity="1" style="display:block" transform="translate(283.497 273.001)"/></g><g clip-path="url(#c)" style="display:block"><g fill="#F8C8C0" style="display:block"><path d="m247.368 170.269 30.831 10.14m-69.235 106.625 55.459 18.241c29.559 9.722 55.407-2.531 55.407-2.531l27.21 8.95 30.852-93.803-27.21-8.949a93.467 93.467 0 0 0-38.801-53.856l-39.807-26.279a10.915 10.915 0 0 0-14.802 2.637c-9.174 12.457-6.268 30.028 6.428 38.869l14.499 10.096m-16.917-5.564-50.524-16.617-37.308-12.271c-7.599-2.499-15.787 1.635-18.286 9.234-2.803 8.523 1.833 17.704 10.356 20.507l34.469 11.337 51.692 17.001m-9.602 29.192-50.906-16.744-39.433-12.97c-7.599-2.499-15.787 1.635-18.286 9.234-2.803 8.523 1.833 17.704 10.356 20.507l44.63 14.679 44.038 14.485m0 0-43.51-14.311-21.281-6.999c-8.061-2.651-16.745 1.734-19.396 9.795s1.734 16.745 9.795 19.396l23.488 7.725 41.303 13.585m28.804-87.574-52.517-17.273-50.019-16.451c-8.061-2.651-16.745 1.734-19.396 9.795s1.734 16.745 9.795 19.396a8726420.63 8726420.63 0 0 0 102.535 33.725m6.948-62.484s-68.184 96.488-25.778 117.774c10.131 5.085 65.438-103.409 65.438-103.409l-39.66-14.365z"/><path d="m57.04-31.114 30.831 10.14M18.636 85.651l55.459 18.241c29.559 9.722 55.407-2.531 55.407-2.531l27.21 8.95 30.852-93.803-27.21-8.949a93.467 93.467 0 0 0-38.801-53.856L81.746-72.576a10.915 10.915 0 0 0-14.802 2.637c-9.174 12.457-6.268 30.028 6.428 38.869l14.499 10.096m-16.917-5.564L20.43-43.155l-37.308-12.271c-7.599-2.499-15.787 1.635-18.286 9.234-2.803 8.523 1.833 17.704 10.356 20.507L9.661-14.348 61.353 2.653m-9.602 29.192L.845 15.101l-39.433-12.97c-7.599-2.499-15.787 1.635-18.286 9.234-2.803 8.523 1.833 17.704 10.356 20.507l44.63 14.679L42.15 61.036m0 0L-1.36 46.725l-21.281-6.999c-8.061-2.651-16.745 1.734-19.396 9.795s1.734 16.745 9.795 19.396l23.488 7.725 41.303 13.585M61.353 2.653 8.836-14.62l-50.019-16.451c-8.061-2.651-16.745 1.734-19.396 9.795s1.734 16.745 9.795 19.396A8726420.63 8726420.63 0 0 0 51.751 31.845m6.948-62.484S-9.485 65.849 32.921 87.135C43.052 92.22 98.359-16.274 98.359-16.274l-39.66-14.365z" opacity=".5" style="mix-blend-mode:multiply" transform="translate(190.328 201.383)"/></g><path fill="none" stroke="#121330" stroke-linecap="round" stroke-linejoin="round" stroke-width="7" d="m57.04-31.114 30.831 10.14m0 0L73.372-31.07c-12.696-8.841-15.602-26.412-6.428-38.869 0 0 0 0 0 0a10.915 10.915 0 0 1 14.802-2.637l39.807 26.279a93.467 93.467 0 0 1 38.801 53.856l27.21 8.949-30.852 93.803-27.21-8.95s-25.848 12.253-55.407 2.531L18.636 85.651M70.954-26.538 20.43-43.155l-37.308-12.271c-7.599-2.499-15.787 1.635-18.286 9.234 0 0 0 0 0 0-2.803 8.523 1.833 17.704 10.356 20.507L9.661-14.348 61.353 2.653m-9.602 29.192L.845 15.101l-39.433-12.97c-7.599-2.499-15.787 1.635-18.286 9.234 0 0 0 0 0 0-2.803 8.523 1.833 17.704 10.356 20.507l44.63 14.679L42.15 61.036m0 0L-1.36 46.725l-21.281-6.999c-8.061-2.651-16.745 1.734-19.396 9.795 0 0 0 0 0 0-2.651 8.061 1.734 16.745 9.795 19.396l23.488 7.725 41.303 13.585M61.353 2.653 8.836-14.62l-50.019-16.451c-8.061-2.651-16.745 1.734-19.396 9.795 0 0 0 0 0 0-2.651 8.061 1.734 16.745 9.795 19.396A8726420.63 8726420.63 0 0 0 51.751 31.845" style="display:block" transform="translate(190.328 201.383)"/><g fill="#F8C8C0" style="display:block"><path d="m274.93 264.61-18.67-26.54m-100.53 70.72s15.68 22.3 33.59 47.75c17.9 25.45 45.95 31.06 45.95 31.06l16.48 23.43 80.76-56.82-16.48-23.43a93.416 93.416 0 0 0 1.04-66.37l-16.23-44.85c-1.98-5.46-7.89-8.42-13.45-6.72-14.8 4.51-22.96 20.34-18.06 35.01l-3.9 3.76m-.74-1.56-28.33-40.28-24.87-35.35c-4.61-6.54-13.64-8.11-20.18-3.51-7.34 5.16-9.11 15.3-3.94 22.63l22.88 32.53 29.3 41.66m-25.13 17.68-27.68-39.35-27.04-38.43c-4.6-6.55-13.64-8.12-20.18-3.52-7.34 5.17-9.1 15.3-3.94 22.64l28.13 39.98 25.58 36.36m0 0-29.1-41.36-10.15-14.43c-4.88-6.94-14.46-8.6-21.4-3.72-6.94 4.88-8.61 14.46-3.73 21.4l17.12 24.35 22.12 31.44m75.4-53.04-27.18-38.65-34.92-49.64c-4.88-6.94-14.47-8.6-21.41-3.72-6.94 4.88-8.61 14.47-3.73 21.41l33.32 47.35 28.79 40.93M253.5 235l-102 68 37 53 105-65.5-40-55.5z"/><path d="m253.5 235-102 68 37 53 105-65.5-40-55.5z"/></g><path fill="none" stroke="#121330" stroke-linecap="round" stroke-linejoin="round" stroke-width="7" d="m34.714 5.335 5.639-26.707M8.384 8.473-9.95-11.61" style="display:block" transform="translate(179.503 113.168)"/><path fill="none" stroke="#121330" stroke-linecap="round" stroke-linejoin="round" stroke-width="7" d="M-27.238-34.935-8.564-8.389m0 0-5.6-16.758c-4.904-14.673 3.257-30.501 18.055-35.015 0 0 0 0 0 0a10.915 10.915 0 0 1 13.448 6.724l16.236 44.85a93.47 93.47 0 0 1-1.039 66.37l16.481 23.427-80.763 56.816-16.481-23.428s-28.051-5.608-45.954-31.058l-33.591-47.75m108.961-58.744-28.33-40.272-24.869-35.351c-4.603-6.543-13.638-8.116-20.181-3.513 0 0 0 0 0 0-7.338 5.162-9.102 15.295-3.94 22.633l22.882 32.527 29.305 41.657m-25.134 17.681L-96.76-26.945l-27.036-38.431c-4.603-6.543-13.638-8.116-20.181-3.513v.001c-7.338 5.162-9.102 15.295-3.94 22.633l28.127 39.983 25.579 36.359m0 0-29.097-41.361-10.147-14.424c-4.882-6.94-14.467-8.608-21.407-3.726 0 0 0 0 0 0-6.94 4.882-8.609 14.467-3.727 21.407l17.125 24.343 22.119 31.442m75.401-53.042-27.185-38.644-34.92-49.639c-4.882-6.94-14.467-8.608-21.407-3.726 0 0 0 0 0 0-6.94 4.882-8.609 14.467-3.727 21.407l33.315 47.357 28.79 40.926" style="display:block" transform="translate(283.497 273.001)"/></g><g class="com" style="display:none"><path/><path/><path/><path/><path/><path/><path/><path/><path/><path/><path/><path/></g></g></svg>